# xmcd
#
# Track frame offsets:
#	182
#	16922
#	36242
#	50942
#	65020
#	83910
#	96842
#	123392
#	142087
#	155270
#	171360
#	188400
#	206242
#	224350
#
# Disc length: 3246 seconds
#
# Revision: 3
# Processed by: cddbd v1.5.2PL0 Copyright (c) Steve Scherf et al.
# Submitted via: audiograbber 1.83.01
#
DISCID=d00cac0e
DTITLE=Various Artist - Heart To Heart
DYEAR=1989
DGENRE=Pop
TTITLE0=Sade - Your Love Is King
TTITLE1=Bill Withers - Lovely Day
TTITLE2=Dan Fogelberg - Longer
TTITLE3=Barbara Dickson - Answer Me
TTITLE4=Justin Hayward - Forever Autumn from Jeff Wayne´s - War Of The Worlds
TTITLE5=Neil Sedaka - Laughter In The Rain
TTITLE6=John Miles - Music
TTITLE7=King - Taste Of Your Tears
TTITLE8=Jennifer Warnes - Right Time Of The Night
TTITLE9=10 CC - The Things We Do For Love
TTITLE10=Mary MacGregor - Torn Between Two Lovers
TTITLE11=Randy Edelman - Uptown Uptempo Woman
TTITLE12=Melissa Manchester - You Should See How She Talks About You
TTITLE13=Elaine Paige and Barbara Dickson - I Know Him So Well
EXTD=
EXTT0=
EXTT1=
EXTT2=
EXTT3=
EXTT4=
EXTT5=
EXTT6=
EXTT7=
EXTT8=
EXTT9=
EXTT10=
EXTT11=
EXTT12=
EXTT13=
PLAYORDER=
